<?xml version="1.0" encoding="UTF-8" standalone="no"?><!DOCTYPE svg PUBLIC "-//W3C//DTD SVG 1.1//EN" "http://www.w3.org/Graphics/SVG/1.1/DTD/svg11.dtd"><svg width="100%" height="100%" viewBox="0 0 16 16" version="1.1" xmlns="http://www.w3.org/2000/svg" xmlns:xlink="http://www.w3.org/1999/xlink" xml:space="preserve" xmlns:serif="http://www.serif.com/" style="fill-rule:evenodd;clip-rule:evenodd;stroke-linejoin:round;stroke-miterlimit:1.41421;"><path d="M10.97,4.862c0.143,-0.123 0.226,-0.303 0.226,-0.492c0,-0.355 -0.292,-0.648 -0.647,-0.648c-0.189,0 -0.37,0.084 -0.492,0.227l-4.857,4.857c-0.379,0.378 -0.593,0.892 -0.593,1.427c0,0.536 0.214,1.05 0.593,1.428c0.794,0.76 2.062,0.76 2.855,0l4.857,-4.856c0.653,-0.638 1.022,-1.514 1.022,-2.427c0,-1.862 -1.532,-3.393 -3.393,-3.393c-0.913,0 -1.789,0.368 -2.427,1.021l-4.857,4.857c-0.893,0.894 -1.396,2.107 -1.396,3.37c0,2.615 2.152,4.767 4.767,4.767c1.264,0 2.477,-0.502 3.37,-1.396l3.562,-3.562c0.143,-0.123 0.227,-0.302 0.227,-0.491c0,-0.356 -0.293,-0.648 -0.648,-0.648c-0.189,0 -0.369,0.082 -0.492,0.227l-3.562,3.561c-0.651,0.652 -1.535,1.017 -2.457,1.017c-1.907,0 -3.475,-1.568 -3.475,-3.475c0,-0.921 0.366,-1.805 1.018,-2.457l4.856,-4.857c0.395,-0.394 0.929,-0.615 1.487,-0.615c1.152,0 2.101,0.948 2.101,2.102c0,0.556 -0.222,1.092 -0.615,1.486l-4.857,4.856c-0.135,0.126 -0.313,0.196 -0.496,0.196c-0.4,0 -0.729,-0.329 -0.729,-0.729c0,-0.184 0.07,-0.362 0.196,-0.496l4.856,-4.857Z" style="fill:#303133;fill-rule:nonzero;"/></svg>