<?xml version="1.0" encoding="UTF-8" standalone="no"?><!DOCTYPE svg PUBLIC "-//W3C//DTD SVG 1.1//EN" "http://www.w3.org/Graphics/SVG/1.1/DTD/svg11.dtd"><svg width="100%" height="100%" viewBox="0 0 16 16" version="1.1" xmlns="http://www.w3.org/2000/svg" xmlns:xlink="http://www.w3.org/1999/xlink" xml:space="preserve" xmlns:serif="http://www.serif.com/" style="fill-rule:evenodd;clip-rule:evenodd;stroke-linejoin:round;stroke-miterlimit:1.41421;"><path d="M2.707,4.832l10.545,0c0.224,0 0.406,-0.182 0.406,-0.406l0,-1.014c0,-0.224 -0.182,-0.406 -0.406,-0.406l-10.545,0c-0.225,0 -0.406,0.182 -0.406,0.406l0,1.014c0,0.224 0.181,0.406 0.406,0.406Zm0,4.056l10.545,0c0.224,0 0.406,-0.182 0.406,-0.405l0,-1.015c0,-0.224 -0.182,-0.405 -0.406,-0.405l-10.545,0c-0.225,0 -0.406,0.181 -0.406,0.405l0,1.015c0,0.223 0.181,0.405 0.406,0.405Zm0,4.056l10.545,0c0.224,0 0.406,-0.182 0.406,-0.406l0,-1.014c0,-0.224 -0.182,-0.406 -0.406,-0.406l-10.545,0c-0.225,0 -0.406,0.182 -0.406,0.406l0,1.014c0,0.224 0.181,0.406 0.406,0.406Z" style="fill:#8a95a1;fill-rule:nonzero;"/></svg>