<?xml version="1.0" encoding="UTF-8" standalone="no"?><!DOCTYPE svg PUBLIC "-//W3C//DTD SVG 1.1//EN" "http://www.w3.org/Graphics/SVG/1.1/DTD/svg11.dtd"><svg width="100%" height="100%" viewBox="0 0 16 16" version="1.1" xmlns="http://www.w3.org/2000/svg" xmlns:xlink="http://www.w3.org/1999/xlink" xml:space="preserve" xmlns:serif="http://www.serif.com/" style="fill-rule:evenodd;clip-rule:evenodd;stroke-linejoin:round;stroke-miterlimit:1.41421;"><path d="M8.266,0.975c-0.096,-0.016 -0.194,-0.025 -0.292,-0.025c-0.964,0 -1.756,0.793 -1.756,1.756l0,0.399c-1.427,0.678 -2.341,2.121 -2.342,3.7l0,1.356c0.004,0.288 -0.101,0.569 -0.292,0.787l-1.06,1.17c-0.252,0.279 -0.391,0.642 -0.391,1.019c0,0.831 0.681,1.516 1.512,1.521l1.987,0c0,1.285 1.058,2.342 2.342,2.342c1.284,0 2.341,-1.057 2.341,-2.342l1.988,0c0.836,0 1.523,-0.687 1.523,-1.521c0,-0.377 -0.14,-0.742 -0.394,-1.022l-1.059,-1.17c-0.192,-0.218 -0.296,-0.498 -0.293,-0.788l0,-1.205c0.009,-1.615 -0.901,-3.103 -2.341,-3.832l0,-0.351c0.009,-0.873 -0.615,-1.633 -1.473,-1.794Zm-0.292,12.855c-0.643,0 -1.171,-0.529 -1.171,-1.172l2.341,0c0,0.643 -0.528,1.172 -1.17,1.172Zm2.926,-6.878l0,1.209c0,0.58 0.216,1.14 0.606,1.571l1.057,1.17c0.057,0.065 0.089,0.148 0.089,0.235c0,0.192 -0.158,0.35 -0.349,0.351l-8.658,0c-0.193,-0.001 -0.35,-0.159 -0.35,-0.351c0,-0.087 0.032,-0.17 0.089,-0.235l1.057,-1.17c0.39,-0.431 0.606,-0.991 0.606,-1.571l0,-1.356c0.001,-1.236 0.786,-2.345 1.953,-2.757c0.231,-0.082 0.388,-0.304 0.388,-0.55l0,-0.79c0.001,-0.172 0.077,-0.335 0.209,-0.445c0.103,-0.093 0.238,-0.143 0.377,-0.141c0.034,-0.002 0.068,-0.002 0.102,0c0.294,0.071 0.498,0.344 0.483,0.647l0,0.735c0,0.243 0.153,0.462 0.38,0.547c1.184,0.473 1.963,1.626 1.961,2.901Z" style="fill:#191919;stroke:#191919;stroke-width:0.2px;"/></svg>