<?xml version="1.0" encoding="UTF-8" standalone="no"?><!DOCTYPE svg PUBLIC "-//W3C//DTD SVG 1.1//EN" "http://www.w3.org/Graphics/SVG/1.1/DTD/svg11.dtd"><svg width="100%" height="100%" viewBox="0 0 16 16" version="1.1" xmlns="http://www.w3.org/2000/svg" xmlns:xlink="http://www.w3.org/1999/xlink" xml:space="preserve" xmlns:serif="http://www.serif.com/" style="fill-rule:evenodd;clip-rule:evenodd;stroke-linejoin:round;stroke-miterlimit:1.41421;"><path d="M8.834,1.034c-0.35,-0.105 -0.731,0.038 -0.927,0.347l-4.813,7.467c-0.062,0.094 -0.094,0.205 -0.094,0.317c0,0.321 0.263,0.584 0.584,0.584l3.5,0l0,4.422c-0.002,0.363 0.236,0.687 0.583,0.793c0.077,0.023 0.157,0.035 0.236,0.035c0.281,0 0.543,-0.144 0.692,-0.381l4.812,-7.47c0.061,-0.095 0.093,-0.204 0.093,-0.315c0,-0.321 -0.263,-0.583 -0.583,-0.584l-3.5,0l0,-4.421c0.004,-0.364 -0.235,-0.688 -0.583,-0.794Zm3.016,6.381l-3.599,5.598l0,-3.848c0,-0.319 -0.264,-0.582 -0.584,-0.582l-3.015,0l3.599,-5.598l0,3.848c0,0.32 0.263,0.582 0.583,0.582l3.016,0Z" style="fill:#303133;fill-rule:nonzero;stroke:#303133;stroke-width:0.2px;"/></svg>