<?xml version="1.0" encoding="UTF-8" standalone="no"?><!DOCTYPE svg PUBLIC "-//W3C//DTD SVG 1.1//EN" "http://www.w3.org/Graphics/SVG/1.1/DTD/svg11.dtd"><svg width="100%" height="100%" viewBox="0 0 16 16" version="1.1" xmlns="http://www.w3.org/2000/svg" xmlns:xlink="http://www.w3.org/1999/xlink" xml:space="preserve" xmlns:serif="http://www.serif.com/" style="fill-rule:evenodd;clip-rule:evenodd;stroke-linejoin:round;stroke-miterlimit:1.41421;"><g><path d="M3.917,14.124l5.836,0c1.6,0 2.917,-1.317 2.917,-2.917l0,-1.167c0,-0.32 -0.264,-0.583 -0.584,-0.583c-0.32,0 -0.583,0.263 -0.583,0.583l0,1.167c0,0.961 -0.791,1.751 -1.75,1.751l-5.836,0c-0.96,0 -1.75,-0.79 -1.75,-1.751l0,-5.835c0,-0.96 0.79,-1.751 1.75,-1.751l4.668,0c0.321,0 0.584,-0.263 0.584,-0.582c0,-0.321 -0.263,-0.584 -0.584,-0.584l-4.668,0c-1.6,0 -2.917,1.317 -2.917,2.917l0,5.835c0,1.6 1.317,2.917 2.917,2.917Z" style="fill:#191919;fill-rule:nonzero;"/><path d="M13.081,2.044c-0.227,-0.225 -0.597,-0.225 -0.822,0l-4.257,4.253l-1.339,-1.336c-0.227,-0.225 -0.597,-0.225 -0.823,0l-1.75,1.75c-0.225,0.227 -0.225,0.597 0,0.823l3.5,3.501c0.226,0.224 0.597,0.224 0.823,0l6.418,-6.419c0.225,-0.225 0.225,-0.596 0,-0.822l-1.75,-1.75Zm-5.079,7.754l-2.675,-2.676l0.925,-0.924l1.338,1.336c0.226,0.224 0.597,0.224 0.823,0l4.257,-4.254l0.925,0.925l-5.593,5.593Z" style="fill:#191919;fill-rule:nonzero;"/></g></svg>