<?xml version="1.0" encoding="UTF-8" standalone="no"?><!DOCTYPE svg PUBLIC "-//W3C//DTD SVG 1.1//EN" "http://www.w3.org/Graphics/SVG/1.1/DTD/svg11.dtd"><svg width="100%" height="100%" viewBox="0 0 40 40" version="1.1" xmlns="http://www.w3.org/2000/svg" xmlns:xlink="http://www.w3.org/1999/xlink" xml:space="preserve" xmlns:serif="http://www.serif.com/" style="fill-rule:evenodd;clip-rule:evenodd;stroke-linejoin:round;stroke-miterlimit:1.41421;"><path d="M23.778,6.778c0,2.085 -1.693,3.778 -3.778,3.778c-2.085,0 -3.778,-1.693 -3.778,-3.778c0,-2.085 1.693,-3.778 3.778,-3.778c2.085,0 3.778,1.693 3.778,3.778Z" style="fill:#8a95a1;"/><path d="M23.778,20c0,2.085 -1.693,3.778 -3.778,3.778c-2.085,0 -3.778,-1.693 -3.778,-3.778c0,-2.085 1.693,-3.778 3.778,-3.778c2.085,0 3.778,1.693 3.778,3.778Z" style="fill:#8a95a1;"/><path d="M23.778,33.222c0,2.085 -1.693,3.778 -3.778,3.778c-2.085,0 -3.778,-1.693 -3.778,-3.778c0,-2.085 1.693,-3.778 3.778,-3.778c2.085,0 3.778,1.693 3.778,3.778Z" style="fill:#8a95a1;"/></svg>