<?xml version="1.0" encoding="UTF-8" standalone="no"?><!DOCTYPE svg PUBLIC "-//W3C//DTD SVG 1.1//EN" "http://www.w3.org/Graphics/SVG/1.1/DTD/svg11.dtd"><svg width="100%" height="100%" viewBox="0 0 16 16" version="1.1" xmlns="http://www.w3.org/2000/svg" xmlns:xlink="http://www.w3.org/1999/xlink" xml:space="preserve" xmlns:serif="http://www.serif.com/" style="fill-rule:evenodd;clip-rule:evenodd;stroke-linejoin:round;stroke-miterlimit:1.41421;"><path d="M5.353,11.333c0.071,0 0.142,-0.011 0.21,-0.033l4,-1.333c0.2,-0.067 0.357,-0.224 0.423,-0.424l1.334,-4c0.022,-0.068 0.034,-0.139 0.034,-0.211c0,-0.365 -0.301,-0.666 -0.667,-0.666c-0.071,0 -0.143,0.011 -0.211,0.034l-4,1.333c-0.2,0.066 -0.357,0.224 -0.423,0.424l-1.333,4c-0.023,0.067 -0.034,0.138 -0.034,0.21c0,0.365 0.301,0.666 0.666,0.666l0.001,0Zm1.86,-4.14l2.42,-0.806l-0.807,2.42l-2.42,0.806l0.807,-2.42Z" style="fill:#191919;fill-rule:nonzero;"/><path d="M8.018,15c3.833,-0.01 6.982,-3.167 6.982,-7c0,-3.84 -3.16,-7 -7,-7c-3.84,0 -7,3.16 -7,7c0,1.86 0.741,3.645 2.059,4.959c1.314,1.313 3.1,2.048 4.959,2.041Zm-4.125,-11.124c1.093,-1.094 2.578,-1.71 4.125,-1.71c3.2,0 5.834,2.634 5.834,5.834c0,3.2 -2.634,5.834 -5.834,5.834c-1.547,0 -3.032,-0.616 -4.125,-1.71c-1.098,-1.09 -1.716,-2.576 -1.716,-4.124c0,-1.548 0.618,-3.034 1.716,-4.124Z" style="fill:#191919;fill-rule:nonzero;stroke:#191919;stroke-width:0.2px;"/></svg>