<?xml version="1.0" encoding="UTF-8" standalone="no"?><!DOCTYPE svg PUBLIC "-//W3C//DTD SVG 1.1//EN" "http://www.w3.org/Graphics/SVG/1.1/DTD/svg11.dtd"><svg width="100%" height="100%" viewBox="0 0 16 16" version="1.1" xmlns="http://www.w3.org/2000/svg" xmlns:xlink="http://www.w3.org/1999/xlink" xml:space="preserve" xmlns:serif="http://www.serif.com/" style="fill-rule:evenodd;clip-rule:evenodd;stroke-linejoin:round;stroke-miterlimit:1.41421;"><path d="M1.538,3.292l0,1.343c-0.01,0.691 0.106,1.379 0.342,2.029c0.625,1.705 2.048,3 3.805,3.463l0.477,3.845c0.072,0.588 0.579,1.032 1.171,1.028l1.305,0c0.592,0.004 1.099,-0.44 1.171,-1.028l0.471,-3.845c1.757,-0.463 3.18,-1.758 3.806,-3.463c0.231,-0.651 0.344,-1.338 0.33,-2.029l0,-1.343c0,-1.61 -3.337,-2.342 -6.439,-2.342c-3.103,0 -6.439,0.732 -6.439,2.342Zm8.09,5.778c-0.254,0.044 -0.449,0.25 -0.481,0.506l-0.518,4.253l-1.305,0l-0.518,-4.253c-0.031,-0.255 -0.225,-0.46 -0.477,-0.506c-1.535,-0.279 -2.812,-1.352 -3.351,-2.816c-0.176,-0.495 -0.266,-1.015 -0.264,-1.54c1.244,0.627 3.299,0.919 5.263,0.919c1.964,0 4.019,-0.292 5.269,-0.919c0.001,0.525 -0.088,1.045 -0.263,1.54c-0.541,1.465 -1.819,2.538 -3.355,2.816Zm3.618,-5.778c-0.117,0.331 -1.873,1.17 -5.269,1.17c-3.396,0 -5.175,-0.852 -5.269,-1.17c0.094,-0.325 1.85,-1.172 5.269,-1.172c3.418,0 5.148,0.841 5.269,1.172Z" style="fill:#8a95a1;fill-rule:nonzero;"/></svg>