<?xml version="1.0" encoding="UTF-8" standalone="no"?><!DOCTYPE svg PUBLIC "-//W3C//DTD SVG 1.1//EN" "http://www.w3.org/Graphics/SVG/1.1/DTD/svg11.dtd"><svg width="100%" height="100%" viewBox="0 0 15 16" version="1.1" xmlns="http://www.w3.org/2000/svg" xmlns:xlink="http://www.w3.org/1999/xlink" xml:space="preserve" xmlns:serif="http://www.serif.com/" style="fill-rule:evenodd;clip-rule:evenodd;stroke-linejoin:round;stroke-miterlimit:1.41421;"><path d="M1.25,13.25c0,0.96 0.79,1.75 1.75,1.75l9.333,0c0.96,0 1.75,-0.79 1.75,-1.75l0,-4.084c0,-0.96 -0.79,-1.75 -1.75,-1.75l-0.583,0l0,-2.332c0,-2.24 -1.843,-4.084 -4.083,-4.084c-2.24,0 -4.084,1.844 -4.084,4.084l0,2.332l-0.583,0c-0.96,0 -1.75,0.79 -1.75,1.75l0,4.084Zm3.5,-8.166c0,-1.601 1.317,-2.918 2.917,-2.918c1.599,0 2.916,1.317 2.916,2.918l0,2.332l-1.166,0l0,-2.332c0,-0.961 -0.79,-1.75 -1.75,-1.75c-0.961,0 -1.75,0.789 -1.75,1.75l0,2.332l-1.167,0l0,-2.332Zm2.333,2.332l0,-2.332c0,-0.321 0.264,-0.584 0.584,-0.584c0.319,0 0.583,0.263 0.583,0.584l0,2.332l-1.167,0Zm-4.666,1.75c0,-0.319 0.263,-0.582 0.583,-0.582l9.333,0c0.321,0 0.584,0.263 0.584,0.582l0,4.084c0,0.32 -0.263,0.584 -0.584,0.584l-9.333,0c-0.32,0 -0.583,-0.264 -0.583,-0.584l0,-4.084Z" style="fill:#8a95a1;fill-rule:nonzero;"/></svg>