<?xml version="1.0" encoding="UTF-8" standalone="no"?><!DOCTYPE svg PUBLIC "-//W3C//DTD SVG 1.1//EN" "http://www.w3.org/Graphics/SVG/1.1/DTD/svg11.dtd"><svg width="100%" height="100%" viewBox="0 0 16 16" version="1.1" xmlns="http://www.w3.org/2000/svg" xmlns:xlink="http://www.w3.org/1999/xlink" xml:space="preserve" xmlns:serif="http://www.serif.com/" style="fill-rule:evenodd;clip-rule:evenodd;stroke-linejoin:round;stroke-miterlimit:1.41421;"><g><path d="M10.334,7.416l0,-4.082c0,-1.281 -1.054,-2.334 -2.334,-2.334c-1.28,0 -2.334,1.053 -2.334,2.334l0,4.082c0,1.28 1.054,2.334 2.334,2.334c1.28,0 2.334,-1.054 2.334,-2.334Zm-3.5,0l0,-4.082c0,-0.641 0.526,-1.168 1.166,-1.168c0.64,0 1.166,0.527 1.166,1.168l0,4.082c0,0.641 -0.526,1.168 -1.166,1.168c-0.64,0 -1.166,-0.527 -1.166,-1.168Z" style="fill:#303133;fill-rule:nonzero;stroke:#303133;stroke-width:0.2px;"/><path d="M8,15c0.32,0 0.584,-0.263 0.584,-0.584l0,-1.785c2.642,-0.295 4.665,-2.555 4.666,-5.215c0,-0.319 -0.263,-0.582 -0.584,-0.582c-0.319,0 -0.582,0.263 -0.582,0.582c0,2.24 -1.844,4.084 -4.084,4.084c-2.24,0 -4.084,-1.844 -4.084,-4.084c0,-0.319 -0.263,-0.582 -0.582,-0.582c-0.321,0 -0.584,0.263 -0.584,0.582c0.001,2.66 2.024,4.921 4.666,5.215l0,1.785c0,0.321 0.264,0.584 0.584,0.584Z" style="fill:#303133;fill-rule:nonzero;stroke:#303133;stroke-width:0.2px;"/></g></svg>