<?xml version="1.0" encoding="UTF-8" standalone="no"?><!DOCTYPE svg PUBLIC "-//W3C//DTD SVG 1.1//EN" "http://www.w3.org/Graphics/SVG/1.1/DTD/svg11.dtd"><svg width="100%" height="100%" viewBox="0 0 16 16" version="1.1" xmlns="http://www.w3.org/2000/svg" xmlns:xlink="http://www.w3.org/1999/xlink" xml:space="preserve" xmlns:serif="http://www.serif.com/" style="fill-rule:evenodd;clip-rule:evenodd;stroke-linejoin:round;stroke-miterlimit:1.41421;"><g><path d="M5.666,6.25c0.321,0 0.584,0.263 0.584,0.584c0,0.319 0.263,0.582 0.584,0.582c0.319,0 0.582,-0.263 0.582,-0.582c0,-0.961 -0.789,-1.75 -1.75,-1.75c-0.959,0 -1.75,0.789 -1.75,1.75c0,0.319 0.264,0.582 0.584,0.582c0.32,0 0.584,-0.263 0.584,-0.582c0,-0.321 0.263,-0.584 0.582,-0.584Z" style="fill:#303133;fill-rule:nonzero;"/><path d="M10.334,5.084c-0.961,0 -1.75,0.789 -1.75,1.75c0,0.319 0.263,0.582 0.582,0.582c0.321,0 0.584,-0.263 0.584,-0.582c0,-0.321 0.263,-0.584 0.584,-0.584c0.319,0 0.582,0.263 0.582,0.584c0,0.319 0.264,0.582 0.584,0.582c0.32,0 0.584,-0.263 0.584,-0.582c0,-0.961 -0.79,-1.75 -1.75,-1.75Z" style="fill:#303133;fill-rule:nonzero;"/><path d="M8,1c-3.84,0 -7,3.16 -7,7c0,3.84 3.16,7 7,7c3.84,0 7,-3.16 7,-7c0,-3.84 -3.16,-7 -7,-7Zm0,12.834c-3.2,0 -5.834,-2.634 -5.834,-5.834c0,-3.2 2.634,-5.834 5.834,-5.834c3.2,0 5.834,2.634 5.834,5.834c0,3.2 -2.634,5.834 -5.834,5.834Z" style="fill:#303133;fill-rule:nonzero;"/><path d="M10.334,8.584l-4.668,0c-0.32,0 -0.583,0.263 -0.583,0.582c0,0.048 0.006,0.097 0.018,0.144l0.158,0.633c0.313,1.253 1.449,2.14 2.741,2.14c1.292,0 2.428,-0.887 2.741,-2.141l0.158,-0.632c0.012,-0.047 0.018,-0.096 0.018,-0.144c0,-0.319 -0.263,-0.582 -0.583,-0.582Zm-2.334,2.332c-0.724,0.002 -1.37,-0.473 -1.584,-1.166l3.168,0c-0.214,0.693 -0.86,1.168 -1.584,1.166Z" style="fill:#303133;fill-rule:nonzero;"/></g></svg>