<?xml version="1.0" encoding="UTF-8" standalone="no"?><!DOCTYPE svg PUBLIC "-//W3C//DTD SVG 1.1//EN" "http://www.w3.org/Graphics/SVG/1.1/DTD/svg11.dtd"><svg width="100%" height="100%" viewBox="0 0 16 16" version="1.1" xmlns="http://www.w3.org/2000/svg" xmlns:xlink="http://www.w3.org/1999/xlink" xml:space="preserve" xmlns:serif="http://www.serif.com/" style="fill-rule:evenodd;clip-rule:evenodd;stroke-linejoin:round;stroke-miterlimit:1.41421;"><path d="M1.066,6.174c0.152,-0.479 0.568,-0.828 1.065,-0.897l3.242,-0.471l1.438,-2.924c0.222,-0.448 0.682,-0.733 1.18,-0.733c0.501,0 0.96,0.285 1.182,0.733l1.462,2.924l3.236,0.482c0.645,0.094 1.129,0.653 1.129,1.305c0,0.355 -0.143,0.695 -0.398,0.943l-2.338,2.286l0.552,3.216c0.013,0.074 0.019,0.149 0.019,0.225c0,0.724 -0.595,1.319 -1.318,1.319c-0.214,0 -0.424,-0.053 -0.613,-0.152l-2.9,-1.526l-2.906,1.514c-0.189,0.1 -0.399,0.152 -0.613,0.152c-0.724,0 -1.319,-0.596 -1.319,-1.318c0,-0.077 0.007,-0.152 0.019,-0.225l0.553,-3.217l-2.338,-2.285c-0.361,-0.349 -0.491,-0.874 -0.334,-1.351Zm1.837,0.501c-0.017,0.047 -0.004,0.102 0.033,0.135l2.248,2.185c0.123,0.12 0.176,0.294 0.144,0.462l-0.532,3.086c-0.009,0.049 0.012,0.1 0.054,0.127c0.04,0.028 0.094,0.028 0.135,0l2.771,-1.458c0.15,-0.079 0.327,-0.079 0.476,0l2.771,1.448c0.041,0.026 0.095,0.026 0.136,0c0.042,-0.028 0.063,-0.079 0.054,-0.128l-0.537,-3.086c-0.028,-0.165 0.028,-0.335 0.148,-0.451l2.247,-2.187c0.037,-0.033 0.05,-0.086 0.034,-0.133c-0.015,-0.047 -0.056,-0.08 -0.105,-0.087l-3.101,-0.449c-0.166,-0.026 -0.309,-0.131 -0.383,-0.281l-1.385,-2.811c-0.061,-0.12 -0.173,-0.12 -0.234,0l-1.385,2.811c-0.074,0.15 -0.217,0.255 -0.383,0.281l-3.101,0.449c-0.049,0.007 -0.09,0.04 -0.105,0.087Z" style="fill:#303133;"/></svg>