<?xml version="1.0" encoding="UTF-8" standalone="no"?><!DOCTYPE svg PUBLIC "-//W3C//DTD SVG 1.1//EN" "http://www.w3.org/Graphics/SVG/1.1/DTD/svg11.dtd"><svg width="100%" height="100%" viewBox="0 0 16 16" version="1.1" xmlns="http://www.w3.org/2000/svg" xmlns:xlink="http://www.w3.org/1999/xlink" xml:space="preserve" xmlns:serif="http://www.serif.com/" style="fill-rule:evenodd;clip-rule:evenodd;stroke-linejoin:round;stroke-miterlimit:1.41421;"><path d="M13.191,10.124c0.028,-0.216 0.043,-0.433 0.044,-0.651c-0.003,-2.008 -1.161,-3.842 -2.971,-4.71c0.041,-0.171 0.063,-0.347 0.064,-0.523c0,-1.276 -1.05,-2.326 -2.325,-2.326c-1.276,0 -2.325,1.05 -2.325,2.326c0.002,0.176 0.022,0.352 0.064,0.523c-1.811,0.868 -2.968,2.702 -2.972,4.71c0.002,0.218 0.016,0.435 0.044,0.651c-1.057,0.238 -1.814,1.184 -1.814,2.269c0,1.275 1.05,2.324 2.326,2.324c0.704,0 1.373,-0.32 1.814,-0.869c1.732,1.141 3.988,1.141 5.72,0c0.441,0.549 1.11,0.869 1.814,0.869c1.276,0 2.326,-1.049 2.326,-2.324c0,-1.085 -0.757,-2.031 -1.814,-2.269l0.005,0Zm-5.188,-7.047c0.637,0 1.162,0.525 1.162,1.163c0.001,0.638 -0.524,1.163 -1.162,1.163c-0.638,0 -1.163,-0.525 -1.163,-1.163c0,-0.638 0.525,-1.163 1.163,-1.163Zm-4.651,10.465c-0.638,0 -1.163,-0.525 -1.163,-1.163c0,-0.637 0.525,-1.162 1.163,-1.162c0.638,0 1.163,0.525 1.163,1.162c0,0.638 -0.525,1.163 -1.163,1.163Zm4.651,0c-0.849,0 -1.678,-0.267 -2.366,-0.764c0.025,-0.132 0.039,-0.265 0.041,-0.399c-0.006,-1.029 -0.694,-1.939 -1.684,-2.224c-0.313,-1.798 0.63,-3.596 2.288,-4.36c0.435,0.494 1.063,0.776 1.721,0.776c0.658,0 1.285,-0.282 1.721,-0.776c1.427,0.666 2.345,2.103 2.348,3.678c0.001,0.229 -0.019,0.457 -0.06,0.682c-0.99,0.285 -1.678,1.195 -1.684,2.224c0.002,0.134 0.016,0.267 0.042,0.399c-0.689,0.497 -1.518,0.764 -2.367,0.764Zm4.651,0c-0.638,0 -1.163,-0.525 -1.163,-1.163c0,-0.637 0.525,-1.162 1.163,-1.162c0.638,0 1.163,0.525 1.163,1.162c0,0.638 -0.525,1.163 -1.163,1.163Z" style="fill:#8a95a1;fill-rule:nonzero;"/></svg>