<?xml version="1.0" encoding="UTF-8" standalone="no"?><!DOCTYPE svg PUBLIC "-//W3C//DTD SVG 1.1//EN" "http://www.w3.org/Graphics/SVG/1.1/DTD/svg11.dtd"><svg width="100%" height="100%" viewBox="0 0 16 16" version="1.1" xmlns="http://www.w3.org/2000/svg" xmlns:xlink="http://www.w3.org/1999/xlink" xml:space="preserve" xmlns:serif="http://www.serif.com/" style="fill-rule:evenodd;clip-rule:evenodd;stroke-linejoin:round;stroke-miterlimit:1.41421;"><path d="M8,1c-3.84,0 -7,3.16 -7,7c0,3.84 3.16,7 7,7c3.84,0 7,-3.16 7,-7c0,-3.84 -3.16,-7 -7,-7Zm-2.916,12.043l0,-0.377c0,-1.599 1.316,-2.916 2.916,-2.916c1.6,0 2.916,1.317 2.916,2.916l0,0.377c-1.799,1.052 -4.033,1.052 -5.832,0Zm1.166,-6.209c0,-0.961 0.79,-1.75 1.75,-1.75c0.96,0 1.75,0.789 1.75,1.75c0,0.959 -0.79,1.75 -1.75,1.75c-0.96,0 -1.75,-0.79 -1.75,-1.75Zm5.801,5.351c-0.159,-1.34 -0.975,-2.518 -2.172,-3.141c0.655,-0.547 1.036,-1.357 1.037,-2.21c0,-1.601 -1.316,-2.918 -2.916,-2.918c-1.6,0 -2.916,1.317 -2.916,2.918c0.001,0.853 0.382,1.663 1.037,2.21c-1.198,0.623 -2.013,1.801 -2.172,3.141c-1.139,-1.098 -1.783,-2.614 -1.783,-4.196c0,-3.201 2.634,-5.834 5.834,-5.834c3.2,0 5.834,2.633 5.834,5.834c0,1.582 -0.644,3.098 -1.783,4.196Z" style="fill:#191919;fill-rule:nonzero;stroke:#191919;stroke-width:0.2px;"/></svg>