<?xml version="1.0" encoding="UTF-8" standalone="no"?><!DOCTYPE svg PUBLIC "-//W3C//DTD SVG 1.1//EN" "http://www.w3.org/Graphics/SVG/1.1/DTD/svg11.dtd"><svg width="100%" height="100%" viewBox="0 0 16 16" version="1.1" xmlns="http://www.w3.org/2000/svg" xmlns:xlink="http://www.w3.org/1999/xlink" xml:space="preserve" xmlns:serif="http://www.serif.com/" style="fill-rule:evenodd;clip-rule:evenodd;stroke-linejoin:round;stroke-miterlimit:1.41421;"><g><path d="M3.334,15l5.832,0c1.188,0.008 2.2,-0.892 2.334,-2.071l2.625,1.522c0.088,0.052 0.189,0.079 0.291,0.079c0.321,0 0.584,-0.263 0.584,-0.583l0,-6.061c0,-0.319 -0.263,-0.582 -0.584,-0.582c-0.102,0 -0.203,0.027 -0.291,0.077l-2.625,1.523c-0.134,-1.179 -1.146,-2.078 -2.334,-2.07l-5.832,0c-1.281,0 -2.334,1.052 -2.334,2.332l0,3.5c0,1.281 1.053,2.334 2.334,2.334Zm10.5,-2.062l-2.334,-1.348l0,-1.347l2.334,-1.348l0,4.043Zm-11.668,-3.772c0,-0.639 0.527,-1.166 1.168,-1.166l5.832,0c0.641,0 1.168,0.527 1.168,1.166l0,3.5c0,0.641 -0.527,1.168 -1.168,1.168l-5.832,0c-0.641,0 -1.168,-0.527 -1.168,-1.168l0,-3.5Z" style="fill:#303133;fill-rule:nonzero;stroke:#303133;stroke-width:0.2px;"/><path d="M1.584,3.625c0,1.12 0.921,2.041 2.041,2.041c1.12,0 2.041,-0.921 2.041,-2.041c0,-1.12 -0.921,-2.041 -2.041,-2.041c-1.12,0 -2.041,0.921 -2.041,2.041Zm2.916,0c0,0.48 -0.395,0.875 -0.875,0.875c-0.48,0 -0.875,-0.395 -0.875,-0.875c0,-0.48 0.395,-0.875 0.875,-0.875c0.48,0 0.875,0.395 0.875,0.875Z" style="fill:#303133;fill-rule:nonzero;stroke:#303133;stroke-width:0.1px;"/><path d="M9.166,5.666c1.281,0 2.334,-1.052 2.334,-2.332c0,-1.28 -1.053,-2.334 -2.334,-2.334c-1.28,0 -2.332,1.054 -2.332,2.334c0,1.28 1.052,2.332 2.332,2.332Zm0,-3.5c0.641,0 1.168,0.527 1.168,1.168c0,0.639 -0.527,1.166 -1.168,1.166c-0.639,0 -1.166,-0.527 -1.166,-1.166c0,-0.641 0.527,-1.168 1.166,-1.168Z" style="fill:#303133;fill-rule:nonzero;stroke:#303133;stroke-width:0.1px;"/></g></svg>